<svg xmlns="http://www.w3.org/2000/svg" viewBox="0 0 320 240" fill="none">
  <rect width="320" height="240" fill="#0d1117"/>

  <!-- Desk -->
  <rect x="0" y="188" width="320" height="52" rx="0" fill="#161b22"/>
  <rect x="0" y="188" width="320" height="4" fill="#21262d"/>

  <!-- Monitor stand -->
  <rect x="148" y="172" width="24" height="18" rx="3" fill="#21262d"/>
  <rect x="132" y="186" width="56" height="6" rx="3" fill="#21262d"/>

  <!-- Monitor -->
  <rect x="52" y="44" width="216" height="136" rx="10" fill="#161b22" stroke="#30363d" stroke-width="2"/>
  <rect x="58" y="50" width="204" height="120" rx="6" fill="#0d1117"/>

  <!-- Screen glow -->
  <rect x="58" y="50" width="204" height="120" rx="6" fill="url(#screenGlow)" opacity="0.3"/>
  <defs>
    <radialGradient id="screenGlow" cx="50%" cy="50%" r="50%">
      <stop offset="0%" stop-color="#58a6ff" stop-opacity="0.15"/>
      <stop offset="100%" stop-color="#0d1117" stop-opacity="0"/>
    </radialGradient>
  </defs>

  <!-- Code editor UI -->
  <!-- Sidebar -->
  <rect x="58" y="50" width="36" height="120" fill="#161b22"/>
  <!-- Sidebar icons -->
  <rect x="68" y="62" width="16" height="3" rx="1" fill="#484f58" opacity="0.8"/>
  <rect x="68" y="70" width="16" height="3" rx="1" fill="#484f58" opacity="0.5"/>
  <rect x="68" y="78" width="16" height="3" rx="1" fill="#484f58" opacity="0.5"/>
  <circle cx="76" cy="90" r="6" fill="#58a6ff" opacity="0.2"/>
  <circle cx="76" cy="90" r="3" fill="#58a6ff" opacity="0.5"/>
  <circle cx="76" cy="106" r="6" fill="#484f58" opacity="0.2"/>
  <circle cx="76" cy="106" r="3" fill="#484f58" opacity="0.3"/>
  <circle cx="76" cy="122" r="6" fill="#484f58" opacity="0.2"/>
  <circle cx="76" cy="122" r="3" fill="#484f58" opacity="0.3"/>

  <!-- Tab bar -->
  <rect x="94" y="50" width="168" height="16" fill="#161b22"/>
  <rect x="94" y="50" width="64" height="16" fill="#0d1117"/>
  <rect x="94" y="64" width="64" height="2" fill="#f97316"/>
  <text x="114" y="61" font-family="monospace" font-size="7" fill="#c9d1d9" opacity="0.8">App.tsx</text>
  <text x="168" y="61" font-family="monospace" font-size="7" fill="#484f58">utils.ts</text>
  <text x="224" y="61" font-family="monospace" font-size="7" fill="#484f58">api.ts</text>

  <!-- Line numbers -->
  <rect x="94" y="66" width="18" height="104" fill="#161b22"/>
  <text x="104" y="77" font-family="monospace" font-size="6" fill="#484f58" text-anchor="middle">1</text>
  <text x="104" y="87" font-family="monospace" font-size="6" fill="#484f58" text-anchor="middle">2</text>
  <text x="104" y="97" font-family="monospace" font-size="6" fill="#484f58" text-anchor="middle">3</text>
  <text x="104" y="107" font-family="monospace" font-size="6" fill="#484f58" text-anchor="middle">4</text>
  <text x="104" y="117" font-family="monospace" font-size="6" fill="#484f58" text-anchor="middle">5</text>
  <text x="104" y="127" font-family="monospace" font-size="6" fill="#484f58" text-anchor="middle">6</text>
  <text x="104" y="137" font-family="monospace" font-size="6" fill="#484f58" text-anchor="middle">7</text>
  <text x="104" y="147" font-family="monospace" font-size="6" fill="#484f58" text-anchor="middle">8</text>
  <text x="104" y="157" font-family="monospace" font-size="6" fill="#484f58" text-anchor="middle">9</text>
  <text x="104" y="167" font-family="monospace" font-size="6" fill="#484f58" text-anchor="middle">10</text>

  <!-- Code content -->
  <!-- Line 1 -->
  <text x="118" y="77" font-family="monospace" font-size="7" fill="#ff7b72">import</text>
  <text x="148" y="77" font-family="monospace" font-size="7" fill="#c9d1d9"> React </text>
  <text x="172" y="77" font-family="monospace" font-size="7" fill="#ff7b72">from</text>
  <text x="192" y="77" font-family="monospace" font-size="7" fill="#a5d6ff"> 'react'</text>
  <!-- Line 2 -->
  <text x="118" y="87" font-family="monospace" font-size="7" fill="#ff7b72">import</text>
  <text x="148" y="87" font-family="monospace" font-size="7" fill="#ffa657"> { useState }</text>
  <!-- Line 3 blank -->
  <!-- Line 4 highlighted -->
  <rect x="112" y="99" width="144" height="10" rx="2" fill="#f97316" opacity="0.08"/>
  <text x="118" y="107" font-family="monospace" font-size="7" fill="#79c0ff">export default</text>
  <text x="189" y="107" font-family="monospace" font-size="7" fill="#d2a8ff"> function</text>
  <text x="228" y="107" font-family="monospace" font-size="7" fill="#e3b341"> App</text>
  <text x="245" y="107" font-family="monospace" font-size="7" fill="#c9d1d9">() {'{'}  </text>
  <!-- Cursor on this line -->
  <rect x="251" y="100" width="2" height="9" rx="1" fill="#58a6ff" opacity="0.9"/>

  <!-- Line 5 -->
  <text x="126" y="117" font-family="monospace" font-size="7" fill="#79c0ff">  const</text>
  <text x="157" y="117" font-family="monospace" font-size="7" fill="#ffa657"> [count, setCount]</text>
  <!-- Line 6 -->
  <text x="126" y="127" font-family="monospace" font-size="7" fill="#c9d1d9">    = </text>
  <text x="145" y="127" font-family="monospace" font-size="7" fill="#d2a8ff">useState</text>
  <text x="183" y="127" font-family="monospace" font-size="7" fill="#a5d6ff">(0)</text>
  <!-- Line 7 -->
  <text x="118" y="137" font-family="monospace" font-size="7" fill="#c9d1d9">  </text>
  <text x="126" y="137" font-family="monospace" font-size="7" fill="#79c0ff">return</text>
  <!-- Line 8 -->
  <text x="126" y="147" font-family="monospace" font-size="7" fill="#7ee787">    &lt;div</text>
  <text x="158" y="147" font-family="monospace" font-size="7" fill="#79c0ff"> className</text>
  <text x="206" y="147" font-family="monospace" font-size="7" fill="#c9d1d9">=</text>
  <text x="212" y="147" font-family="monospace" font-size="7" fill="#a5d6ff">"app"</text>
  <!-- Line 9 -->
  <text x="134" y="157" font-family="monospace" font-size="7" fill="#7ee787">      &lt;button</text>
  <text x="184" y="157" font-family="monospace" font-size="7" fill="#79c0ff"> onClick</text>
  <!-- Line 10 -->
  <text x="134" y="167" font-family="monospace" font-size="7" fill="#c9d1d9">        {count}</text>

  <!-- Keyboard -->
  <rect x="88" y="196" width="144" height="28" rx="5" fill="#21262d" stroke="#30363d" stroke-width="1"/>
  <!-- Key rows -->
  <rect x="94" y="200" width="8" height="5" rx="1" fill="#30363d"/>
  <rect x="104" y="200" width="8" height="5" rx="1" fill="#30363d"/>
  <rect x="114" y="200" width="8" height="5" rx="1" fill="#30363d"/>
  <rect x="124" y="200" width="8" height="5" rx="1" fill="#30363d"/>
  <rect x="134" y="200" width="8" height="5" rx="1" fill="#30363d"/>
  <rect x="144" y="200" width="8" height="5" rx="1" fill="#30363d"/>
  <rect x="154" y="200" width="8" height="5" rx="1" fill="#30363d"/>
  <rect x="164" y="200" width="8" height="5" rx="1" fill="#30363d"/>
  <rect x="174" y="200" width="8" height="5" rx="1" fill="#30363d"/>
  <rect x="184" y="200" width="10" height="5" rx="1" fill="#30363d"/>
  <!-- Row 2 -->
  <rect x="96" y="207" width="8" height="5" rx="1" fill="#30363d"/>
  <rect x="106" y="207" width="8" height="5" rx="1" fill="#58a6ff" opacity="0.4"/>
  <rect x="116" y="207" width="8" height="5" rx="1" fill="#30363d"/>
  <rect x="126" y="207" width="8" height="5" rx="1" fill="#30363d"/>
  <rect x="136" y="207" width="8" height="5" rx="1" fill="#30363d"/>
  <rect x="146" y="207" width="8" height="5" rx="1" fill="#30363d"/>
  <rect x="156" y="207" width="8" height="5" rx="1" fill="#30363d"/>
  <rect x="166" y="207" width="8" height="5" rx="1" fill="#30363d"/>
  <rect x="176" y="207" width="16" height="5" rx="1" fill="#30363d"/>
  <!-- Spacebar -->
  <rect x="108" y="214" width="64" height="5" rx="2" fill="#30363d"/>
  <rect x="174" y="214" width="12" height="5" rx="1" fill="#30363d"/>
  <rect x="96" y="214" width="10" height="5" rx="1" fill="#30363d"/>

  <!-- Mouse -->
  <rect x="244" y="196" width="22" height="32" rx="11" fill="#21262d" stroke="#30363d" stroke-width="1"/>
  <line x1="255" y1="196" x2="255" y2="212" stroke="#30363d" stroke-width="1"/>
  <rect x="250" y="200" width="4" height="6" rx="2" fill="#58a6ff" opacity="0.3"/>

  <!-- Person (developer) sitting -->
  <!-- Head -->
  <circle cx="30" cy="158" r="16" fill="#f0c8a0"/>
  <!-- Hair -->
  <path d="M15 152 Q16 140 30 140 Q44 140 45 152 Q40 148 30 149 Q20 148 15 152Z" fill="#3d2b1f"/>
  <!-- Body -->
  <rect x="12" y="174" width="36" height="30" rx="8" fill="#1f6feb"/>
  <!-- Neck -->
  <rect x="25" y="171" width="10" height="6" fill="#f0c8a0"/>
  <!-- Arms reaching toward keyboard -->
  <path d="M12 182 Q4 194 52 200" stroke="#1f6feb" stroke-width="10" stroke-linecap="round" fill="none"/>
  <path d="M48 182 Q58 190 88 202" stroke="#1f6feb" stroke-width="10" stroke-linecap="round" fill="none"/>
  <!-- Hands -->
  <circle cx="52" cy="200" r="6" fill="#f0c8a0"/>
  <circle cx="88" cy="202" r="6" fill="#f0c8a0"/>
  <!-- Face details -->
  <circle cx="25" cy="158" r="2" fill="#3d2b1f" opacity="0.7"/>
  <circle cx="35" cy="158" r="2" fill="#3d2b1f" opacity="0.7"/>
  <path d="M26 164 Q30 167 34 164" stroke="#3d2b1f" stroke-width="1.5" fill="none" stroke-linecap="round"/>
  <!-- Coffee mug -->
  <rect x="276" y="182" width="18" height="20" rx="4" fill="#21262d" stroke="#30363d" stroke-width="1"/>
  <path d="M294 188 Q302 188 302 196 Q302 202 294 202" stroke="#30363d" stroke-width="2" fill="none" stroke-linecap="round"/>
  <rect x="278" y="184" width="14" height="4" rx="2" fill="#f97316" opacity="0.6"/>
  <!-- Steam -->
  <path d="M282 180 Q284 175 282 170" stroke="#484f58" stroke-width="1.5" fill="none" stroke-linecap="round" opacity="0.6"/>
  <path d="M288 179 Q290 174 288 169" stroke="#484f58" stroke-width="1.5" fill="none" stroke-linecap="round" opacity="0.4"/>
</svg>
