<svg xmlns="http://www.w3.org/2000/svg" viewBox="0 0 400 300" fill="none">
  <rect width="400" height="300" fill="#ffffff"/>

  <!-- existing team block -->
  <rect x="24" y="60" width="168" height="192" rx="12" stroke="#e5e7eb" stroke-width="1.5"/>
  <text x="108" y="82" text-anchor="middle" font-family="'Inter',sans-serif" font-size="8.5" font-weight="600" fill="#9ca3af">Your Team</text>
  <line x1="24" y1="90" x2="192" y2="90" stroke="#f3f4f6" stroke-width="1"/>

  <!-- team member 1 -->
  <circle cx="60"  cy="122" r="18" stroke="#e5e7eb" stroke-width="1.5"/>
  <circle cx="60"  cy="117" r="7" fill="#e5e7eb"/>
  <path d="M46,134 Q46,126 60,126 Q74,126 74,134" fill="#e5e7eb"/>

  <!-- team member 2 -->
  <circle cx="108" cy="122" r="18" stroke="#e5e7eb" stroke-width="1.5"/>
  <circle cx="108" cy="117" r="7" fill="#e5e7eb"/>
  <path d="M94,134 Q94,126 108,126 Q122,126 122,134" fill="#e5e7eb"/>

  <!-- team member 3 -->
  <circle cx="156" cy="122" r="18" stroke="#e5e7eb" stroke-width="1.5"/>
  <circle cx="156" cy="117" r="7" fill="#e5e7eb"/>
  <path d="M142,134 Q142,126 156,126 Q170,126 170,134" fill="#e5e7eb"/>

  <!-- role tags -->
  <rect x="38"  y="146" width="44" height="16" rx="8" fill="#f3f4f6"/>
  <text x="60"  y="158" text-anchor="middle" font-family="'Inter',sans-serif" font-size="7.5" fill="#6b7280">FE Dev</text>
  <rect x="86"  y="146" width="44" height="16" rx="8" fill="#f3f4f6"/>
  <text x="108" y="158" text-anchor="middle" font-family="'Inter',sans-serif" font-size="7.5" fill="#6b7280">BE Dev</text>
  <rect x="134" y="146" width="44" height="16" rx="8" fill="#f3f4f6"/>
  <text x="156" y="158" text-anchor="middle" font-family="'Inter',sans-serif" font-size="7.5" fill="#6b7280">Design</text>

  <!-- skills row -->
  <rect x="36" y="172" width="36" height="12" rx="6" stroke="#e5e7eb" stroke-width="1"/>
  <text x="54" y="182" text-anchor="middle" font-family="'Inter',sans-serif" font-size="7" fill="#9ca3af">React</text>
  <rect x="78" y="172" width="36" height="12" rx="6" stroke="#e5e7eb" stroke-width="1"/>
  <text x="96" y="182" text-anchor="middle" font-family="'Inter',sans-serif" font-size="7" fill="#9ca3af">Node</text>
  <rect x="120" y="172" width="36" height="12" rx="6" stroke="#e5e7eb" stroke-width="1"/>
  <text x="138" y="182" text-anchor="middle" font-family="'Inter',sans-serif" font-size="7" fill="#9ca3af">Figma</text>

  <!-- standup line -->
  <rect x="36" y="196" width="140" height="28" rx="8" stroke="#e5e7eb" stroke-width="1.5"/>
  <circle cx="50" cy="210" r="5" fill="#e5e7eb"/>
  <rect x="60" y="205" width="80" height="5" rx="2.5" fill="#f3f4f6"/>
  <rect x="60" y="213" width="56" height="5" rx="2.5" fill="#f3f4f6"/>
  <text x="108" y="234" text-anchor="middle" font-family="'Inter',sans-serif" font-size="7.5" fill="#9ca3af">Daily standup</text>

  <!-- plus sign connector -->
  <circle cx="220" cy="156" r="18" fill="#ef5023"/>
  <line x1="212" y1="156" x2="228" y2="156" stroke="white" stroke-width="2.5" stroke-linecap="round"/>
  <line x1="220" y1="148" x2="220" y2="164" stroke="white" stroke-width="2.5" stroke-linecap="round"/>

  <!-- augmented engineer -->
  <rect x="248" y="60" width="128" height="192" rx="12" stroke="#ef5023" stroke-width="1.5"/>
  <text x="312" y="82" text-anchor="middle" font-family="'Inter',sans-serif" font-size="8.5" font-weight="600" fill="#ef5023">InApps Engineer</text>
  <line x1="248" y1="90" x2="376" y2="90" stroke="#ef5023" stroke-width="1" stroke-opacity="0.2"/>

  <!-- engineer avatar -->
  <circle cx="312" cy="130" r="26" stroke="#ef5023" stroke-width="1.5"/>
  <circle cx="312" cy="123" r="11" fill="#ef5023" opacity="0.15" stroke="#ef5023" stroke-width="1.5"/>
  <path d="M293,146 Q293,133 312,133 Q331,133 331,146" fill="#ef5023" opacity="0.12" stroke="#ef5023" stroke-width="1.5"/>

  <!-- vetted badge -->
  <rect x="284" y="162" width="56" height="18" rx="9" fill="#ef5023"/>
  <text x="312" y="175" text-anchor="middle" font-family="'Inter',sans-serif" font-size="7.5" font-weight="700" fill="white">✓ Vetted</text>

  <!-- skill chips -->
  <rect x="258" y="188" width="48" height="14" rx="7" stroke="#ef5023" stroke-width="1" stroke-opacity="0.4"/>
  <text x="282" y="199" text-anchor="middle" font-family="'Inter',sans-serif" font-size="7.5" fill="#ef5023">Full-stack</text>
  <rect x="314" y="188" width="48" height="14" rx="7" stroke="#ef5023" stroke-width="1" stroke-opacity="0.4"/>
  <text x="338" y="199" text-anchor="middle" font-family="'Inter',sans-serif" font-size="7.5" fill="#ef5023">AI/ML</text>
  <rect x="258" y="208" width="104" height="14" rx="7" stroke="#ef5023" stroke-width="1" stroke-opacity="0.4"/>
  <text x="310" y="219" text-anchor="middle" font-family="'Inter',sans-serif" font-size="7.5" fill="#ef5023">Embedded in 48h</text>

</svg>
